<mxfile host="app.diagrams.net" agent="Mozilla/5.0 (Windows NT 10.0; Win64; x64) AppleWebKit/537.36 (KHTML, like Gecko) Chrome/141.0.0.0 Safari/537.36 Edg/141.0.0.0" version="28.2.8">
  <diagram name="Page-1" id="2YBvvXClWsGukQMizWep">
    <mxGraphModel dx="1418" dy="794" grid="1" gridSize="10" guides="1" tooltips="1" connect="1" arrows="1" fold="1" page="1" pageScale="1" pageWidth="850" pageHeight="1100" math="0" shadow="0">
      <root>
        <mxCell id="0" />
        <mxCell id="1" parent="0" />
        <mxCell id="aM9ryv3xv72pqoxQDRHE-1" value=":GUI" style="shape=umlLifeline;perimeter=lifelinePerimeter;whiteSpace=wrap;html=1;container=0;dropTarget=0;collapsible=0;recursiveResize=0;outlineConnect=0;portConstraint=eastwest;newEdgeStyle={&quot;edgeStyle&quot;:&quot;elbowEdgeStyle&quot;,&quot;elbow&quot;:&quot;vertical&quot;,&quot;curved&quot;:0,&quot;rounded&quot;:0};" parent="1" vertex="1">
          <mxGeometry x="111" y="48" width="100" height="912" as="geometry" />
        </mxCell>
        <mxCell id="aM9ryv3xv72pqoxQDRHE-2" value="" style="html=1;points=[];perimeter=orthogonalPerimeter;outlineConnect=0;targetShapes=umlLifeline;portConstraint=eastwest;newEdgeStyle={&quot;edgeStyle&quot;:&quot;elbowEdgeStyle&quot;,&quot;elbow&quot;:&quot;vertical&quot;,&quot;curved&quot;:0,&quot;rounded&quot;:0};" parent="aM9ryv3xv72pqoxQDRHE-1" vertex="1">
          <mxGeometry x="45" y="70" width="10" height="800" as="geometry" />
        </mxCell>
        <mxCell id="aM9ryv3xv72pqoxQDRHE-3" value="dispatch" style="html=1;verticalAlign=bottom;startArrow=oval;endArrow=block;startSize=8;edgeStyle=elbowEdgeStyle;elbow=vertical;curved=0;rounded=0;" parent="aM9ryv3xv72pqoxQDRHE-1" target="aM9ryv3xv72pqoxQDRHE-2" edge="1">
          <mxGeometry relative="1" as="geometry">
            <mxPoint x="-15" y="70" as="sourcePoint" />
          </mxGeometry>
        </mxCell>
        <mxCell id="aM9ryv3xv72pqoxQDRHE-5" value=":ControllerClass" style="shape=umlLifeline;perimeter=lifelinePerimeter;whiteSpace=wrap;html=1;container=0;dropTarget=0;collapsible=0;recursiveResize=0;outlineConnect=0;portConstraint=eastwest;newEdgeStyle={&quot;edgeStyle&quot;:&quot;elbowEdgeStyle&quot;,&quot;elbow&quot;:&quot;vertical&quot;,&quot;curved&quot;:0,&quot;rounded&quot;:0};" parent="1" vertex="1">
          <mxGeometry x="354" y="48" width="100" height="912" as="geometry" />
        </mxCell>
        <mxCell id="aM9ryv3xv72pqoxQDRHE-6" value="" style="html=1;points=[];perimeter=orthogonalPerimeter;outlineConnect=0;targetShapes=umlLifeline;portConstraint=eastwest;newEdgeStyle={&quot;edgeStyle&quot;:&quot;elbowEdgeStyle&quot;,&quot;elbow&quot;:&quot;vertical&quot;,&quot;curved&quot;:0,&quot;rounded&quot;:0};" parent="aM9ryv3xv72pqoxQDRHE-5" vertex="1">
          <mxGeometry x="45" y="94" width="10" height="776" as="geometry" />
        </mxCell>
        <mxCell id="aM9ryv3xv72pqoxQDRHE-7" value="" style="html=1;verticalAlign=bottom;endArrow=block;edgeStyle=elbowEdgeStyle;elbow=vertical;curved=0;rounded=0;" parent="1" edge="1">
          <mxGeometry relative="1" as="geometry">
            <mxPoint x="166" y="142" as="sourcePoint" />
            <Array as="points">
              <mxPoint x="209" y="142" />
              <mxPoint x="251" y="122" />
            </Array>
            <mxPoint x="399" y="142" as="targetPoint" />
          </mxGeometry>
        </mxCell>
        <mxCell id="0jZ7-tW0BVTjiJO53gmQ-3" value="managePromoCodes()" style="edgeLabel;html=1;align=center;verticalAlign=middle;resizable=0;points=[];" parent="aM9ryv3xv72pqoxQDRHE-7" vertex="1" connectable="0">
          <mxGeometry x="-0.0645" y="3" relative="1" as="geometry">
            <mxPoint y="-7" as="offset" />
          </mxGeometry>
        </mxCell>
        <mxCell id="aM9ryv3xv72pqoxQDRHE-8" value="display &quot;Existing Promo Codes&quot;" style="html=1;verticalAlign=bottom;endArrow=open;dashed=1;endSize=8;edgeStyle=elbowEdgeStyle;elbow=vertical;curved=0;rounded=0;" parent="1" edge="1">
          <mxGeometry relative="1" as="geometry">
            <mxPoint x="166" y="240.0000000000001" as="targetPoint" />
            <Array as="points">
              <mxPoint x="264" y="240" />
            </Array>
            <mxPoint x="399" y="240" as="sourcePoint" />
          </mxGeometry>
        </mxCell>
        <mxCell id="VEuW4mEXxXxEv6BpwXh5-1" value="Admin" style="shape=umlActor;verticalLabelPosition=bottom;verticalAlign=top;html=1;" parent="1" vertex="1">
          <mxGeometry x="59" y="78" width="30" height="60" as="geometry" />
        </mxCell>
        <mxCell id="VEuW4mEXxXxEv6BpwXh5-5" value=":PromotionalCodes" style="shape=umlLifeline;perimeter=lifelinePerimeter;whiteSpace=wrap;html=1;container=0;dropTarget=0;collapsible=0;recursiveResize=0;outlineConnect=0;portConstraint=eastwest;newEdgeStyle={&quot;edgeStyle&quot;:&quot;elbowEdgeStyle&quot;,&quot;elbow&quot;:&quot;vertical&quot;,&quot;curved&quot;:0,&quot;rounded&quot;:0};" parent="1" vertex="1">
          <mxGeometry x="739" y="48" width="120" height="912" as="geometry" />
        </mxCell>
        <mxCell id="VEuW4mEXxXxEv6BpwXh5-6" value="" style="html=1;points=[];perimeter=orthogonalPerimeter;outlineConnect=0;targetShapes=umlLifeline;portConstraint=eastwest;newEdgeStyle={&quot;edgeStyle&quot;:&quot;elbowEdgeStyle&quot;,&quot;elbow&quot;:&quot;vertical&quot;,&quot;curved&quot;:0,&quot;rounded&quot;:0};" parent="VEuW4mEXxXxEv6BpwXh5-5" vertex="1">
          <mxGeometry x="55" y="510" width="10" height="160" as="geometry" />
        </mxCell>
        <mxCell id="0jZ7-tW0BVTjiJO53gmQ-1" value=":DB" style="shape=umlLifeline;perimeter=lifelinePerimeter;whiteSpace=wrap;html=1;container=0;dropTarget=0;collapsible=0;recursiveResize=0;outlineConnect=0;portConstraint=eastwest;newEdgeStyle={&quot;edgeStyle&quot;:&quot;elbowEdgeStyle&quot;,&quot;elbow&quot;:&quot;vertical&quot;,&quot;curved&quot;:0,&quot;rounded&quot;:0};" parent="1" vertex="1">
          <mxGeometry x="922" y="49" width="120" height="911" as="geometry" />
        </mxCell>
        <mxCell id="EJbwKhiUwv7nrLsNbU0W-14" value="" style="html=1;points=[];perimeter=orthogonalPerimeter;outlineConnect=0;targetShapes=umlLifeline;portConstraint=eastwest;newEdgeStyle={&quot;edgeStyle&quot;:&quot;elbowEdgeStyle&quot;,&quot;elbow&quot;:&quot;vertical&quot;,&quot;curved&quot;:0,&quot;rounded&quot;:0};" parent="0jZ7-tW0BVTjiJO53gmQ-1" vertex="1">
          <mxGeometry x="55" y="591" width="10" height="39" as="geometry" />
        </mxCell>
        <mxCell id="0jZ7-tW0BVTjiJO53gmQ-4" value=":Code&lt;div&gt;Catalogue&lt;/div&gt;" style="shape=umlLifeline;perimeter=lifelinePerimeter;whiteSpace=wrap;html=1;container=0;dropTarget=0;collapsible=0;recursiveResize=0;outlineConnect=0;portConstraint=eastwest;newEdgeStyle={&quot;edgeStyle&quot;:&quot;elbowEdgeStyle&quot;,&quot;elbow&quot;:&quot;vertical&quot;,&quot;curved&quot;:0,&quot;rounded&quot;:0};" parent="1" vertex="1">
          <mxGeometry x="549" y="48" width="120" height="912" as="geometry" />
        </mxCell>
        <mxCell id="0jZ7-tW0BVTjiJO53gmQ-5" value="" style="html=1;points=[];perimeter=orthogonalPerimeter;outlineConnect=0;targetShapes=umlLifeline;portConstraint=eastwest;newEdgeStyle={&quot;edgeStyle&quot;:&quot;elbowEdgeStyle&quot;,&quot;elbow&quot;:&quot;vertical&quot;,&quot;curved&quot;:0,&quot;rounded&quot;:0};" parent="0jZ7-tW0BVTjiJO53gmQ-4" vertex="1">
          <mxGeometry x="55" y="113" width="10" height="198" as="geometry" />
        </mxCell>
        <mxCell id="0jZ7-tW0BVTjiJO53gmQ-6" value="" style="html=1;verticalAlign=bottom;endArrow=block;edgeStyle=elbowEdgeStyle;elbow=vertical;curved=0;rounded=0;" parent="1" edge="1">
          <mxGeometry relative="1" as="geometry">
            <mxPoint x="409" y="161" as="sourcePoint" />
            <Array as="points">
              <mxPoint x="452" y="161" />
              <mxPoint x="494" y="141" />
            </Array>
            <mxPoint x="604" y="161" as="targetPoint" />
          </mxGeometry>
        </mxCell>
        <mxCell id="0jZ7-tW0BVTjiJO53gmQ-7" value="showPromoCodes()" style="edgeLabel;html=1;align=center;verticalAlign=middle;resizable=0;points=[];" parent="0jZ7-tW0BVTjiJO53gmQ-6" vertex="1" connectable="0">
          <mxGeometry x="-0.0645" y="3" relative="1" as="geometry">
            <mxPoint y="-7" as="offset" />
          </mxGeometry>
        </mxCell>
        <mxCell id="0jZ7-tW0BVTjiJO53gmQ-8" value="return PromoCodesList" style="html=1;verticalAlign=bottom;endArrow=open;dashed=1;endSize=8;edgeStyle=elbowEdgeStyle;elbow=vertical;curved=0;rounded=0;" parent="1" edge="1">
          <mxGeometry x="0.0051" relative="1" as="geometry">
            <mxPoint x="409" y="200" as="targetPoint" />
            <Array as="points">
              <mxPoint x="499" y="200" />
            </Array>
            <mxPoint x="604" y="200.0000000000001" as="sourcePoint" />
            <mxPoint as="offset" />
          </mxGeometry>
        </mxCell>
        <mxCell id="0jZ7-tW0BVTjiJO53gmQ-9" value="" style="html=1;verticalAlign=bottom;endArrow=block;edgeStyle=elbowEdgeStyle;elbow=vertical;curved=0;rounded=0;" parent="1" edge="1">
          <mxGeometry relative="1" as="geometry">
            <mxPoint x="167" y="280" as="sourcePoint" />
            <Array as="points">
              <mxPoint x="210" y="280" />
              <mxPoint x="252" y="260" />
            </Array>
            <mxPoint x="400" y="280" as="targetPoint" />
          </mxGeometry>
        </mxCell>
        <mxCell id="0jZ7-tW0BVTjiJO53gmQ-10" value="editPromoCode(code)" style="edgeLabel;html=1;align=center;verticalAlign=middle;resizable=0;points=[];" parent="0jZ7-tW0BVTjiJO53gmQ-9" vertex="1" connectable="0">
          <mxGeometry x="-0.0645" y="3" relative="1" as="geometry">
            <mxPoint y="-7" as="offset" />
          </mxGeometry>
        </mxCell>
        <mxCell id="0jZ7-tW0BVTjiJO53gmQ-11" value="" style="html=1;verticalAlign=bottom;endArrow=block;edgeStyle=elbowEdgeStyle;elbow=vertical;curved=0;rounded=0;" parent="1" edge="1">
          <mxGeometry relative="1" as="geometry">
            <mxPoint x="409" y="320" as="sourcePoint" />
            <Array as="points">
              <mxPoint x="452" y="320" />
              <mxPoint x="494" y="300" />
            </Array>
            <mxPoint x="604" y="320" as="targetPoint" />
          </mxGeometry>
        </mxCell>
        <mxCell id="0jZ7-tW0BVTjiJO53gmQ-12" value="getPromoCode(code)" style="edgeLabel;html=1;align=center;verticalAlign=middle;resizable=0;points=[];" parent="0jZ7-tW0BVTjiJO53gmQ-11" vertex="1" connectable="0">
          <mxGeometry x="-0.0645" y="3" relative="1" as="geometry">
            <mxPoint y="-7" as="offset" />
          </mxGeometry>
        </mxCell>
        <mxCell id="0jZ7-tW0BVTjiJO53gmQ-22" value="return existingCodeData" style="html=1;verticalAlign=bottom;endArrow=open;dashed=1;endSize=8;edgeStyle=elbowEdgeStyle;elbow=vertical;curved=0;rounded=0;" parent="1" edge="1">
          <mxGeometry relative="1" as="geometry">
            <mxPoint x="409" y="360" as="targetPoint" />
            <Array as="points">
              <mxPoint x="499" y="360" />
            </Array>
            <mxPoint x="604" y="360.0000000000001" as="sourcePoint" />
          </mxGeometry>
        </mxCell>
        <mxCell id="0jZ7-tW0BVTjiJO53gmQ-28" value="" style="swimlane;startSize=0;" parent="1" vertex="1">
          <mxGeometry x="140" y="450" width="900" height="440" as="geometry" />
        </mxCell>
        <mxCell id="0jZ7-tW0BVTjiJO53gmQ-37" value="&lt;div style=&quot;&quot;&gt;&lt;span style=&quot;text-wrap-mode: nowrap; background-color: rgb(255, 255, 255);&quot;&gt;else&lt;/span&gt;&lt;/div&gt;" style="text;whiteSpace=wrap;html=1;fontSize=14;align=center;" parent="0jZ7-tW0BVTjiJO53gmQ-28" vertex="1">
          <mxGeometry x="-14" y="70" width="130" height="40" as="geometry" />
        </mxCell>
        <mxCell id="EJbwKhiUwv7nrLsNbU0W-9" value="&lt;div style=&quot;&quot;&gt;&lt;span style=&quot;text-wrap-mode: nowrap; background-color: rgb(255, 255, 255);&quot;&gt;validateData(code, validity, percentage)&lt;/span&gt;&lt;/div&gt;" style="text;whiteSpace=wrap;html=1;fontSize=9;align=center;" parent="0jZ7-tW0BVTjiJO53gmQ-28" vertex="1">
          <mxGeometry x="670" y="135" width="220" height="40" as="geometry" />
        </mxCell>
        <mxCell id="EJbwKhiUwv7nrLsNbU0W-10" value="" style="html=1;verticalAlign=bottom;endArrow=block;edgeStyle=elbowEdgeStyle;elbow=vertical;curved=0;rounded=0;" parent="0jZ7-tW0BVTjiJO53gmQ-28" edge="1">
          <mxGeometry relative="1" as="geometry">
            <mxPoint x="684" y="190" as="sourcePoint" />
            <Array as="points">
              <mxPoint x="727" y="190" />
              <mxPoint x="769" y="170" />
            </Array>
            <mxPoint x="857" y="190" as="targetPoint" />
          </mxGeometry>
        </mxCell>
        <mxCell id="EJbwKhiUwv7nrLsNbU0W-11" value="updatePromoCode(code, validity, percentage)" style="edgeLabel;html=1;align=center;verticalAlign=middle;resizable=0;points=[];fontSize=8;" parent="EJbwKhiUwv7nrLsNbU0W-10" vertex="1" connectable="0">
          <mxGeometry x="-0.0645" y="3" relative="1" as="geometry">
            <mxPoint x="5" y="-7" as="offset" />
          </mxGeometry>
        </mxCell>
        <mxCell id="EJbwKhiUwv7nrLsNbU0W-18" value="&lt;div&gt;&lt;span style=&quot;text-wrap-mode: nowrap; background-color: rgb(255, 255, 255);&quot;&gt;If any field is empty&lt;/span&gt;&lt;/div&gt;" style="text;whiteSpace=wrap;html=1;fontSize=12;align=center;" parent="0jZ7-tW0BVTjiJO53gmQ-28" vertex="1">
          <mxGeometry x="20" y="2" width="130" height="40" as="geometry" />
        </mxCell>
        <mxCell id="0jZ7-tW0BVTjiJO53gmQ-34" value="" style="line;strokeWidth=1;html=1;" parent="0jZ7-tW0BVTjiJO53gmQ-28" vertex="1">
          <mxGeometry y="65" width="900" height="10" as="geometry" />
        </mxCell>
        <mxCell id="0jZ7-tW0BVTjiJO53gmQ-55" value="" style="swimlane;startSize=0;" parent="1" vertex="1">
          <mxGeometry x="150" y="750" width="270" height="130" as="geometry" />
        </mxCell>
        <mxCell id="0jZ7-tW0BVTjiJO53gmQ-57" value="&lt;span style=&quot;text-wrap-mode: nowrap; background-color: rgb(255, 255, 255);&quot;&gt;If success&lt;/span&gt;" style="text;whiteSpace=wrap;html=1;fontSize=14;align=left;" parent="0jZ7-tW0BVTjiJO53gmQ-55" vertex="1">
          <mxGeometry x="39.5" y="6" width="195" height="40" as="geometry" />
        </mxCell>
        <mxCell id="0jZ7-tW0BVTjiJO53gmQ-58" value="&lt;div style=&quot;&quot;&gt;&lt;span style=&quot;text-wrap-mode: nowrap; background-color: rgb(255, 255, 255);&quot;&gt;else&lt;/span&gt;&lt;/div&gt;" style="text;whiteSpace=wrap;html=1;fontSize=14;align=center;" parent="0jZ7-tW0BVTjiJO53gmQ-55" vertex="1">
          <mxGeometry x="-6" y="64" width="130" height="40" as="geometry" />
        </mxCell>
        <mxCell id="0jZ7-tW0BVTjiJO53gmQ-56" value="" style="line;strokeWidth=1;html=1;" parent="0jZ7-tW0BVTjiJO53gmQ-55" vertex="1">
          <mxGeometry y="59" width="270" height="10" as="geometry" />
        </mxCell>
        <mxCell id="0jZ7-tW0BVTjiJO53gmQ-72" value="display &quot;PromoCode Update Successfully&quot;" style="html=1;verticalAlign=bottom;endArrow=open;dashed=1;endSize=8;edgeStyle=elbowEdgeStyle;elbow=vertical;curved=0;rounded=0;align=center;" parent="1" edge="1">
          <mxGeometry x="0.0055" relative="1" as="geometry">
            <mxPoint x="166" y="800" as="targetPoint" />
            <Array as="points">
              <mxPoint x="259" y="800" />
            </Array>
            <mxPoint x="399" y="800" as="sourcePoint" />
            <mxPoint as="offset" />
          </mxGeometry>
        </mxCell>
        <mxCell id="0jZ7-tW0BVTjiJO53gmQ-73" value="display &quot;Failed to Update Code&quot;" style="html=1;verticalAlign=bottom;endArrow=open;dashed=1;endSize=8;edgeStyle=elbowEdgeStyle;elbow=vertical;curved=0;rounded=0;align=center;" parent="1" edge="1">
          <mxGeometry relative="1" as="geometry">
            <mxPoint x="166" y="859" as="targetPoint" />
            <Array as="points">
              <mxPoint x="258" y="859" />
            </Array>
            <mxPoint x="399" y="859" as="sourcePoint" />
          </mxGeometry>
        </mxCell>
        <mxCell id="EJbwKhiUwv7nrLsNbU0W-2" value="display &quot;Edit Form (Pre-filled)&quot;" style="html=1;verticalAlign=bottom;endArrow=open;dashed=1;endSize=8;edgeStyle=elbowEdgeStyle;elbow=vertical;curved=0;rounded=0;" parent="1" edge="1">
          <mxGeometry relative="1" as="geometry">
            <mxPoint x="166" y="400.0000000000001" as="targetPoint" />
            <Array as="points">
              <mxPoint x="264" y="400" />
            </Array>
            <mxPoint x="399" y="400" as="sourcePoint" />
          </mxGeometry>
        </mxCell>
        <mxCell id="EJbwKhiUwv7nrLsNbU0W-3" value="" style="html=1;verticalAlign=bottom;endArrow=block;edgeStyle=elbowEdgeStyle;elbow=vertical;curved=0;rounded=0;" parent="1" edge="1">
          <mxGeometry relative="1" as="geometry">
            <mxPoint x="167" y="440" as="sourcePoint" />
            <Array as="points">
              <mxPoint x="210" y="440" />
              <mxPoint x="252" y="420" />
            </Array>
            <mxPoint x="400" y="440" as="targetPoint" />
          </mxGeometry>
        </mxCell>
        <mxCell id="EJbwKhiUwv7nrLsNbU0W-4" value="updatePromoCode(code, validity, percentage)" style="edgeLabel;html=1;align=center;verticalAlign=middle;resizable=0;points=[];" parent="EJbwKhiUwv7nrLsNbU0W-3" vertex="1" connectable="0">
          <mxGeometry x="-0.0645" y="3" relative="1" as="geometry">
            <mxPoint x="5" y="-7" as="offset" />
          </mxGeometry>
        </mxCell>
        <mxCell id="EJbwKhiUwv7nrLsNbU0W-5" value="display &quot;Error. Fields cannot be empty&quot;" style="html=1;verticalAlign=bottom;endArrow=open;dashed=1;endSize=8;edgeStyle=elbowEdgeStyle;elbow=vertical;curved=0;rounded=0;" parent="1" edge="1">
          <mxGeometry x="0.0029" relative="1" as="geometry">
            <mxPoint x="165" y="498.0000000000001" as="targetPoint" />
            <Array as="points">
              <mxPoint x="263" y="498" />
            </Array>
            <mxPoint x="398" y="498" as="sourcePoint" />
            <mxPoint as="offset" />
          </mxGeometry>
        </mxCell>
        <mxCell id="EJbwKhiUwv7nrLsNbU0W-6" value="" style="html=1;verticalAlign=bottom;endArrow=block;edgeStyle=elbowEdgeStyle;elbow=vertical;curved=0;rounded=0;" parent="1" edge="1">
          <mxGeometry relative="1" as="geometry">
            <mxPoint x="409" y="558" as="sourcePoint" />
            <Array as="points">
              <mxPoint x="453" y="558" />
              <mxPoint x="495" y="538" />
            </Array>
            <mxPoint x="794" y="558" as="targetPoint" />
          </mxGeometry>
        </mxCell>
        <mxCell id="EJbwKhiUwv7nrLsNbU0W-7" value="updateField(code, validity, percentage)" style="edgeLabel;html=1;align=center;verticalAlign=middle;resizable=0;points=[];" parent="EJbwKhiUwv7nrLsNbU0W-6" vertex="1" connectable="0">
          <mxGeometry x="-0.0645" y="3" relative="1" as="geometry">
            <mxPoint x="5" y="-7" as="offset" />
          </mxGeometry>
        </mxCell>
        <mxCell id="EJbwKhiUwv7nrLsNbU0W-8" value="" style="edgeStyle=segmentEdgeStyle;endArrow=classic;html=1;curved=0;rounded=0;endSize=8;startSize=8;exitX=0.6;exitY=0.441;exitDx=0;exitDy=0;exitPerimeter=0;" parent="1" edge="1">
          <mxGeometry width="50" height="50" relative="1" as="geometry">
            <mxPoint x="803.9999999999998" y="575.114" as="sourcePoint" />
            <mxPoint x="804" y="615" as="targetPoint" />
            <Array as="points">
              <mxPoint x="844" y="575" />
              <mxPoint x="844" y="615" />
            </Array>
          </mxGeometry>
        </mxCell>
        <mxCell id="EJbwKhiUwv7nrLsNbU0W-15" value="return success/failure" style="html=1;verticalAlign=bottom;endArrow=open;dashed=1;endSize=8;edgeStyle=elbowEdgeStyle;elbow=vertical;curved=0;rounded=0;" parent="1" edge="1">
          <mxGeometry relative="1" as="geometry">
            <mxPoint x="804" y="679" as="targetPoint" />
            <Array as="points">
              <mxPoint x="872" y="679" />
            </Array>
            <mxPoint x="977" y="679.0000000000001" as="sourcePoint" />
          </mxGeometry>
        </mxCell>
        <mxCell id="EJbwKhiUwv7nrLsNbU0W-16" value="return status" style="html=1;verticalAlign=bottom;endArrow=open;dashed=1;endSize=8;edgeStyle=elbowEdgeStyle;elbow=vertical;curved=0;rounded=0;" parent="1" edge="1">
          <mxGeometry relative="1" as="geometry">
            <mxPoint x="410" y="711" as="targetPoint" />
            <Array as="points">
              <mxPoint x="688" y="711" />
            </Array>
            <mxPoint x="793" y="711.0000000000001" as="sourcePoint" />
          </mxGeometry>
        </mxCell>
      </root>
    </mxGraphModel>
  </diagram>
</mxfile>
